<mxfile host="Electron" agent="Mozilla/5.0 (Windows NT 10.0; Win64; x64) AppleWebKit/537.36 (KHTML, like Gecko) draw.io/24.7.17 Chrome/128.0.6613.36 Electron/32.0.1 Safari/537.36" version="24.7.17">
  <diagram name="Page-1" id="LfsDnY6Bl6Zb3LHkaW1e">
    <mxGraphModel dx="20200" dy="15380" grid="0" gridSize="10" guides="1" tooltips="1" connect="1" arrows="1" fold="1" page="0" pageScale="1" pageWidth="850" pageHeight="1100" math="0" shadow="0">
      <root>
        <mxCell id="0" />
        <mxCell id="1" parent="0" />
        <mxCell id="friyxeqYt2H_IM2uGogb-14" value="" style="group" parent="1" vertex="1" connectable="0">
          <mxGeometry x="3508" y="-1787" width="3712" height="1899.98" as="geometry" />
        </mxCell>
        <mxCell id="friyxeqYt2H_IM2uGogb-4" value="" style="group" parent="friyxeqYt2H_IM2uGogb-14" vertex="1" connectable="0">
          <mxGeometry width="3712" height="1899.98" as="geometry" />
        </mxCell>
        <mxCell id="kere6LFMNqeJJOD1_rnF-44" value="" style="group;fillColor=none;" parent="friyxeqYt2H_IM2uGogb-4" vertex="1" connectable="0">
          <mxGeometry y="131.63546948812171" width="3712" height="1768.3445305118782" as="geometry" />
        </mxCell>
        <mxCell id="_22NV1dZ3HJoFYhtjVRD-47" value="" style="rounded=1;whiteSpace=wrap;html=1;fillColor=none;container=0;sketch=1;curveFitting=1;jiggle=2;" parent="kere6LFMNqeJJOD1_rnF-44" vertex="1">
          <mxGeometry width="3712" height="1768.3445305118782" as="geometry" />
        </mxCell>
        <mxCell id="kcarH5I2NXuh7Zedb2XX-98" value="" style="rounded=1;whiteSpace=wrap;html=1;fillColor=none;sketch=1;curveFitting=1;jiggle=2;container=0;" parent="kere6LFMNqeJJOD1_rnF-44" vertex="1">
          <mxGeometry x="86.65060240963854" y="58.89436667140519" width="3540.5622489959824" height="1636.8044763221703" as="geometry" />
        </mxCell>
        <mxCell id="kcarH5I2NXuh7Zedb2XX-4" value="" style="shape=image;verticalLabelPosition=bottom;labelBackgroundColor=default;verticalAlign=top;aspect=fixed;imageAspect=0;image=https://www.pngplay.com/wp-content/uploads/13/Ubuntu-Logo-Transparent-Background.png;container=0;" parent="kere6LFMNqeJJOD1_rnF-44" vertex="1">
          <mxGeometry x="1605.365461847389" y="1695.6988429935755" width="236.1887313542281" height="62.98559673583519" as="geometry" />
        </mxCell>
        <mxCell id="_22NV1dZ3HJoFYhtjVRD-45" value="" style="shape=image;verticalLabelPosition=bottom;labelBackgroundColor=default;verticalAlign=top;aspect=fixed;imageAspect=0;image=https://upload.wikimedia.org/wikipedia/commons/7/79/Docker_%28container_engine%29_logo.png;container=0;" parent="kere6LFMNqeJJOD1_rnF-44" vertex="1">
          <mxGeometry x="258.08835341365454" y="1568.7317667928837" width="598.5518355244357" height="143.05277120394638" as="geometry" />
        </mxCell>
        <mxCell id="_CQs1Z3hWOk7bnMP531Z-1" value="" style="shape=image;verticalLabelPosition=bottom;labelBackgroundColor=default;verticalAlign=top;aspect=fixed;imageAspect=0;image=https://static.vecteezy.com/system/resources/previews/024/555/259/large_2x/github-logo-transparent-free-png.png;" parent="kere6LFMNqeJJOD1_rnF-44" vertex="1">
          <mxGeometry x="3256.512086877622" y="103.54844215702876" width="263.8378104547304" height="263.8378104547304" as="geometry" />
        </mxCell>
        <mxCell id="kcarH5I2NXuh7Zedb2XX-6" value="" style="shape=image;verticalLabelPosition=bottom;labelBackgroundColor=default;verticalAlign=top;aspect=fixed;imageAspect=0;image=https://www.pngplay.com/wp-content/uploads/3/Amazon-Web-Services-AWS-Logo-Transparent-PNG.png;rotation=-40;imageBackground=default;" parent="kere6LFMNqeJJOD1_rnF-44" vertex="1">
          <mxGeometry x="3472.546184738955" y="1623.7865267020754" width="157.79778647666734" height="94.68157444806194" as="geometry" />
        </mxCell>
        <mxCell id="kcarH5I2NXuh7Zedb2XX-5" value="" style="shape=image;verticalLabelPosition=bottom;labelBackgroundColor=default;verticalAlign=top;aspect=fixed;imageAspect=0;image=https://imgix.datadoghq.com/img/aws-integrations/amazon_ec2.png;container=0;" parent="friyxeqYt2H_IM2uGogb-4" vertex="1">
          <mxGeometry x="1584.8651257039228" width="443.02554857474775" height="283.0268046806747" as="geometry" />
        </mxCell>
        <mxCell id="kcarH5I2NXuh7Zedb2XX-94" value="" style="group" parent="friyxeqYt2H_IM2uGogb-14" vertex="1" connectable="0">
          <mxGeometry x="3244" y="766.98" width="300" height="200" as="geometry" />
        </mxCell>
        <mxCell id="kcarH5I2NXuh7Zedb2XX-93" value="" style="rounded=1;whiteSpace=wrap;html=1;fillColor=none;sketch=1;curveFitting=1;jiggle=2;" parent="kcarH5I2NXuh7Zedb2XX-94" vertex="1">
          <mxGeometry width="300" height="200" as="geometry" />
        </mxCell>
        <mxCell id="kcarH5I2NXuh7Zedb2XX-80" value="" style="shape=image;verticalLabelPosition=bottom;labelBackgroundColor=default;verticalAlign=top;aspect=fixed;imageAspect=0;image=https://logos-world.net/wp-content/uploads/2022/02/Microsoft-Power-BI-Symbol.png;" parent="kcarH5I2NXuh7Zedb2XX-94" vertex="1">
          <mxGeometry x="14" y="18.49" width="274.67" height="154.51" as="geometry" />
        </mxCell>
        <mxCell id="kcarH5I2NXuh7Zedb2XX-96" value="" style="group" parent="friyxeqYt2H_IM2uGogb-14" vertex="1" connectable="0">
          <mxGeometry x="3251" y="1042.98" width="300" height="200" as="geometry" />
        </mxCell>
        <mxCell id="kcarH5I2NXuh7Zedb2XX-95" value="" style="rounded=1;whiteSpace=wrap;html=1;fillColor=none;sketch=1;curveFitting=1;jiggle=2;" parent="kcarH5I2NXuh7Zedb2XX-96" vertex="1">
          <mxGeometry width="299.99999999999994" height="200" as="geometry" />
        </mxCell>
        <mxCell id="kcarH5I2NXuh7Zedb2XX-79" value="" style="shape=image;verticalLabelPosition=bottom;labelBackgroundColor=default;verticalAlign=top;aspect=fixed;imageAspect=0;image=https://www.turbogeek.co.uk/wp-content/uploads/2020/09/1200px-Grafana_logo.svg_.png;" parent="kcarH5I2NXuh7Zedb2XX-96" vertex="1">
          <mxGeometry x="63.269999999999996" y="8" width="173.46" height="177" as="geometry" />
        </mxCell>
        <mxCell id="kere6LFMNqeJJOD1_rnF-20" style="edgeStyle=orthogonalEdgeStyle;rounded=0;orthogonalLoop=1;jettySize=auto;html=1;entryX=0;entryY=0.5;entryDx=0;entryDy=0;strokeWidth=3;flowAnimation=1;" parent="friyxeqYt2H_IM2uGogb-14" source="kere6LFMNqeJJOD1_rnF-8" target="kcarH5I2NXuh7Zedb2XX-81" edge="1">
          <mxGeometry relative="1" as="geometry" />
        </mxCell>
        <mxCell id="kere6LFMNqeJJOD1_rnF-22" style="edgeStyle=orthogonalEdgeStyle;rounded=0;orthogonalLoop=1;jettySize=auto;html=1;entryX=0.5;entryY=1;entryDx=0;entryDy=0;flowAnimation=1;strokeWidth=3;" parent="friyxeqYt2H_IM2uGogb-14" source="_22NV1dZ3HJoFYhtjVRD-26" target="kere6LFMNqeJJOD1_rnF-8" edge="1">
          <mxGeometry relative="1" as="geometry">
            <Array as="points">
              <mxPoint x="2119" y="1095.98" />
              <mxPoint x="2119" y="1095.98" />
            </Array>
          </mxGeometry>
        </mxCell>
        <mxCell id="kcarH5I2NXuh7Zedb2XX-18" value="" style="group" parent="friyxeqYt2H_IM2uGogb-14" vertex="1" connectable="0">
          <mxGeometry x="398.1399999999999" y="869.98" width="250" height="159.99999999999994" as="geometry" />
        </mxCell>
        <mxCell id="kcarH5I2NXuh7Zedb2XX-12" value="Kafka Producer" style="shape=image;verticalLabelPosition=bottom;labelBackgroundColor=default;verticalAlign=top;aspect=fixed;imageAspect=0;image=https://static-00.iconduck.com/assets.00/kafka-icon-2048x935-cvu4503l.png;fontSize=13;fontStyle=1" parent="kcarH5I2NXuh7Zedb2XX-18" vertex="1">
          <mxGeometry x="38.35000000000002" y="40.44" width="173.29" height="79.13" as="geometry" />
        </mxCell>
        <mxCell id="kcarH5I2NXuh7Zedb2XX-17" value="" style="rounded=1;whiteSpace=wrap;html=1;fillColor=none;sketch=1;curveFitting=1;jiggle=2;" parent="kcarH5I2NXuh7Zedb2XX-18" vertex="1">
          <mxGeometry width="250" height="160" as="geometry" />
        </mxCell>
        <mxCell id="kcarH5I2NXuh7Zedb2XX-13" value="" style="rounded=1;whiteSpace=wrap;html=1;fillColor=none;sketch=1;curveFitting=1;jiggle=2;" parent="friyxeqYt2H_IM2uGogb-14" vertex="1">
          <mxGeometry x="729" y="869.98" width="250" height="160" as="geometry" />
        </mxCell>
        <mxCell id="kcarH5I2NXuh7Zedb2XX-3" value="Credit_Card_Transions_Topic" style="shape=image;verticalLabelPosition=bottom;labelBackgroundColor=default;verticalAlign=top;aspect=fixed;imageAspect=0;image=https://static-00.iconduck.com/assets.00/kafka-icon-2048x935-cvu4503l.png;fontSize=13;fontStyle=1" parent="friyxeqYt2H_IM2uGogb-14" vertex="1">
          <mxGeometry x="767.3600000000006" y="910.4200000000001" width="173.29" height="79.13" as="geometry" />
        </mxCell>
        <mxCell id="friyxeqYt2H_IM2uGogb-9" style="edgeStyle=orthogonalEdgeStyle;rounded=0;orthogonalLoop=1;jettySize=auto;html=1;entryX=0;entryY=0.5;entryDx=0;entryDy=0;flowAnimation=1;strokeWidth=3;" parent="friyxeqYt2H_IM2uGogb-14" source="kcarH5I2NXuh7Zedb2XX-36" target="kere6LFMNqeJJOD1_rnF-14" edge="1">
          <mxGeometry relative="1" as="geometry" />
        </mxCell>
        <mxCell id="friyxeqYt2H_IM2uGogb-10" style="edgeStyle=orthogonalEdgeStyle;rounded=0;orthogonalLoop=1;jettySize=auto;html=1;entryX=0;entryY=0.5;entryDx=0;entryDy=0;flowAnimation=1;strokeWidth=3;" parent="friyxeqYt2H_IM2uGogb-14" source="kcarH5I2NXuh7Zedb2XX-36" target="kcarH5I2NXuh7Zedb2XX-24" edge="1">
          <mxGeometry relative="1" as="geometry">
            <Array as="points">
              <mxPoint x="1086" y="949.98" />
              <mxPoint x="1086" y="1214.98" />
            </Array>
          </mxGeometry>
        </mxCell>
        <mxCell id="kcarH5I2NXuh7Zedb2XX-36" value="" style="rounded=1;whiteSpace=wrap;html=1;fillColor=none;arcSize=30;sketch=1;curveFitting=1;jiggle=2;" parent="friyxeqYt2H_IM2uGogb-14" vertex="1">
          <mxGeometry x="359" y="807.48" width="660" height="284.99" as="geometry" />
        </mxCell>
        <mxCell id="kcarH5I2NXuh7Zedb2XX-20" style="edgeStyle=orthogonalEdgeStyle;rounded=0;orthogonalLoop=1;jettySize=auto;html=1;entryX=0;entryY=0.5;entryDx=0;entryDy=0;flowAnimation=1;strokeWidth=3;" parent="friyxeqYt2H_IM2uGogb-14" source="kcarH5I2NXuh7Zedb2XX-17" target="kcarH5I2NXuh7Zedb2XX-13" edge="1">
          <mxGeometry relative="1" as="geometry" />
        </mxCell>
        <mxCell id="kcarH5I2NXuh7Zedb2XX-30" value="" style="group" parent="friyxeqYt2H_IM2uGogb-14" vertex="1" connectable="0">
          <mxGeometry x="589" y="709.98" width="220" height="125" as="geometry" />
        </mxCell>
        <mxCell id="kcarH5I2NXuh7Zedb2XX-2" value="" style="shape=image;verticalLabelPosition=bottom;labelBackgroundColor=default;verticalAlign=top;aspect=fixed;imageAspect=0;image=https://blog.medinvention.dev/content/images/2021/02/Apache-ZooKeeper.png;" parent="kcarH5I2NXuh7Zedb2XX-30" vertex="1">
          <mxGeometry x="35.2" y="27.34375" width="131.4140625" height="71.0703125" as="geometry" />
        </mxCell>
        <mxCell id="kcarH5I2NXuh7Zedb2XX-50" value="" style="group" parent="friyxeqYt2H_IM2uGogb-14" vertex="1" connectable="0">
          <mxGeometry x="149" y="729.98" width="130" height="440" as="geometry" />
        </mxCell>
        <mxCell id="kcarH5I2NXuh7Zedb2XX-49" value="" style="rounded=1;whiteSpace=wrap;html=1;fillColor=none;" parent="kcarH5I2NXuh7Zedb2XX-50" vertex="1">
          <mxGeometry width="130" height="440" as="geometry" />
        </mxCell>
        <mxCell id="kcarH5I2NXuh7Zedb2XX-45" value="" style="shape=image;verticalLabelPosition=bottom;labelBackgroundColor=default;verticalAlign=top;aspect=fixed;imageAspect=0;image=https://cdn-icons-png.flaticon.com/512/159/159970.png;" parent="kcarH5I2NXuh7Zedb2XX-50" vertex="1">
          <mxGeometry x="25.14999999999999" y="25.310000000000002" width="79.69" height="79.69" as="geometry" />
        </mxCell>
        <mxCell id="kcarH5I2NXuh7Zedb2XX-46" value="" style="shape=image;verticalLabelPosition=bottom;labelBackgroundColor=default;verticalAlign=top;aspect=fixed;imageAspect=0;image=https://cdn-icons-png.freepik.com/512/8552/8552832.png;" parent="kcarH5I2NXuh7Zedb2XX-50" vertex="1">
          <mxGeometry x="29.03" y="140" width="71.94" height="71.94" as="geometry" />
        </mxCell>
        <mxCell id="kcarH5I2NXuh7Zedb2XX-47" value="" style="shape=image;verticalLabelPosition=bottom;labelBackgroundColor=default;verticalAlign=top;aspect=fixed;imageAspect=0;image=https://cdn-icons-png.freepik.com/512/12877/12877931.png;" parent="kcarH5I2NXuh7Zedb2XX-50" vertex="1">
          <mxGeometry x="26.269999999999996" y="242.53999999999996" width="77.46" height="77.46" as="geometry" />
        </mxCell>
        <mxCell id="kcarH5I2NXuh7Zedb2XX-48" value="" style="shape=image;verticalLabelPosition=bottom;labelBackgroundColor=default;verticalAlign=top;aspect=fixed;imageAspect=0;image=https://cdn3.iconfinder.com/data/icons/money-glyph-silhouettes-pack/4000/22-05-20-Money-pixel-perfect-icons-glyph-14-512.png;" parent="kcarH5I2NXuh7Zedb2XX-50" vertex="1">
          <mxGeometry x="31.120000000000005" y="340" width="80" height="80" as="geometry" />
        </mxCell>
        <mxCell id="kcarH5I2NXuh7Zedb2XX-55" style="edgeStyle=orthogonalEdgeStyle;rounded=0;orthogonalLoop=1;jettySize=auto;html=1;entryX=0.061;entryY=0.43;entryDx=0;entryDy=0;entryPerimeter=0;strokeWidth=3;flowAnimation=1;" parent="friyxeqYt2H_IM2uGogb-14" source="kcarH5I2NXuh7Zedb2XX-45" target="kcarH5I2NXuh7Zedb2XX-36" edge="1">
          <mxGeometry relative="1" as="geometry" />
        </mxCell>
        <mxCell id="kcarH5I2NXuh7Zedb2XX-57" style="edgeStyle=orthogonalEdgeStyle;rounded=0;orthogonalLoop=1;jettySize=auto;html=1;entryX=0.061;entryY=0.64;entryDx=0;entryDy=0;entryPerimeter=0;strokeWidth=3;flowAnimation=1;" parent="friyxeqYt2H_IM2uGogb-14" source="kcarH5I2NXuh7Zedb2XX-48" target="kcarH5I2NXuh7Zedb2XX-36" edge="1">
          <mxGeometry relative="1" as="geometry" />
        </mxCell>
        <mxCell id="friyxeqYt2H_IM2uGogb-5" value="" style="group" parent="friyxeqYt2H_IM2uGogb-14" vertex="1" connectable="0">
          <mxGeometry x="2330" y="440.98" width="936" height="427" as="geometry" />
        </mxCell>
        <mxCell id="kcarH5I2NXuh7Zedb2XX-82" value="" style="group" parent="friyxeqYt2H_IM2uGogb-5" vertex="1" connectable="0">
          <mxGeometry x="11.555555555555554" y="228.53521126760563" width="288.88888888888886" height="192.4507042253521" as="geometry" />
        </mxCell>
        <mxCell id="kcarH5I2NXuh7Zedb2XX-81" value="" style="rounded=1;whiteSpace=wrap;html=1;fillColor=none;sketch=1;curveFitting=1;jiggle=2;" parent="kcarH5I2NXuh7Zedb2XX-82" vertex="1">
          <mxGeometry width="288.88888888888886" height="192.4507042253521" as="geometry" />
        </mxCell>
        <mxCell id="kcarH5I2NXuh7Zedb2XX-77" value="" style="shape=image;verticalLabelPosition=bottom;labelBackgroundColor=default;verticalAlign=top;aspect=fixed;imageAspect=0;image=https://www.qalamcode.com/wp-content/uploads/2024/11/PostgreSQL.png;" parent="kcarH5I2NXuh7Zedb2XX-82" vertex="1">
          <mxGeometry x="69.33333333333333" y="12.028169014084506" width="161.47733333333332" height="161.77777777777777" as="geometry" />
        </mxCell>
        <mxCell id="_22NV1dZ3HJoFYhtjVRD-41" style="edgeStyle=orthogonalEdgeStyle;rounded=0;orthogonalLoop=1;jettySize=auto;html=1;entryX=0.25;entryY=1;entryDx=0;entryDy=0;flowAnimation=1;" parent="friyxeqYt2H_IM2uGogb-5" source="kcarH5I2NXuh7Zedb2XX-81" target="kcarH5I2NXuh7Zedb2XX-90" edge="1">
          <mxGeometry relative="1" as="geometry" />
        </mxCell>
        <mxCell id="_LsLc6gDLLsDXWpWu7L5-1" value="" style="group" parent="friyxeqYt2H_IM2uGogb-5" vertex="1" connectable="0">
          <mxGeometry width="818" height="134" as="geometry" />
        </mxCell>
        <mxCell id="kcarH5I2NXuh7Zedb2XX-90" value="" style="rounded=1;whiteSpace=wrap;html=1;fillColor=none;sketch=1;curveFitting=1;jiggle=2;shadow=1;" parent="_LsLc6gDLLsDXWpWu7L5-1" vertex="1">
          <mxGeometry width="818" height="134" as="geometry" />
        </mxCell>
        <mxCell id="kcarH5I2NXuh7Zedb2XX-89" value="" style="shape=image;verticalLabelPosition=bottom;labelBackgroundColor=default;verticalAlign=top;aspect=fixed;imageAspect=0;image=https://upload.wikimedia.org/wikipedia/commons/thumb/d/de/AirflowLogo.png/1200px-AirflowLogo.png;" parent="_LsLc6gDLLsDXWpWu7L5-1" vertex="1">
          <mxGeometry x="295.8829691596065" y="14.884320707070788" width="226.2434625" height="87.48055555555557" as="geometry" />
        </mxCell>
        <mxCell id="friyxeqYt2H_IM2uGogb-6" value="" style="group" parent="friyxeqYt2H_IM2uGogb-14" vertex="1" connectable="0">
          <mxGeometry x="1161" y="1087.98" width="1288.6190476190477" height="680" as="geometry" />
        </mxCell>
        <mxCell id="P1ue3Hpq2hntPY72s0VW-1" style="edgeStyle=orthogonalEdgeStyle;rounded=0;orthogonalLoop=1;jettySize=auto;html=1;entryX=0;entryY=0.5;entryDx=0;entryDy=0;flowAnimation=1;strokeWidth=4;" parent="friyxeqYt2H_IM2uGogb-6" source="kcarH5I2NXuh7Zedb2XX-24" target="_22NV1dZ3HJoFYhtjVRD-26" edge="1">
          <mxGeometry relative="1" as="geometry" />
        </mxCell>
        <mxCell id="kcarH5I2NXuh7Zedb2XX-23" value="" style="group" parent="friyxeqYt2H_IM2uGogb-6" vertex="1" connectable="0">
          <mxGeometry y="63.63098167991711" width="287" height="146.73" as="geometry" />
        </mxCell>
        <mxCell id="kcarH5I2NXuh7Zedb2XX-24" value="" style="rounded=1;whiteSpace=wrap;html=1;fillColor=none;sketch=1;curveFitting=1;jiggle=2;" parent="kcarH5I2NXuh7Zedb2XX-23" vertex="1">
          <mxGeometry y="-21" width="287" height="167.73" as="geometry" />
        </mxCell>
        <mxCell id="kcarH5I2NXuh7Zedb2XX-25" value="Spark Structured Streaming" style="shape=image;verticalLabelPosition=bottom;labelBackgroundColor=default;verticalAlign=top;aspect=fixed;imageAspect=0;image=https://upload.wikimedia.org/wikipedia/commons/thumb/f/f3/Apache_Spark_logo.svg/512px-Apache_Spark_logo.svg.png;fontSize=13;fontStyle=1" parent="kcarH5I2NXuh7Zedb2XX-23" vertex="1">
          <mxGeometry x="42.8" width="201.4" height="104.63" as="geometry" />
        </mxCell>
        <mxCell id="_22NV1dZ3HJoFYhtjVRD-33" value="" style="group" parent="friyxeqYt2H_IM2uGogb-6" vertex="1" connectable="0">
          <mxGeometry x="461" width="827.6190476190476" height="378.3783783783784" as="geometry" />
        </mxCell>
        <mxCell id="_22NV1dZ3HJoFYhtjVRD-26" value="" style="rounded=1;whiteSpace=wrap;html=1;fillColor=none;sketch=1;curveFitting=1;jiggle=2;" parent="_22NV1dZ3HJoFYhtjVRD-33" vertex="1">
          <mxGeometry width="827.6190476190476" height="378.3783783783784" as="geometry" />
        </mxCell>
        <mxCell id="_22NV1dZ3HJoFYhtjVRD-19" value="" style="group" parent="_22NV1dZ3HJoFYhtjVRD-33" vertex="1" connectable="0">
          <mxGeometry x="413.81" y="200" width="299.19" height="152" as="geometry" />
        </mxCell>
        <mxCell id="_22NV1dZ3HJoFYhtjVRD-18" value="" style="rounded=1;whiteSpace=wrap;html=1;fillColor=none;sketch=1;curveFitting=1;jiggle=2;" parent="_22NV1dZ3HJoFYhtjVRD-19" vertex="1">
          <mxGeometry width="299.19" height="152" as="geometry" />
        </mxCell>
        <mxCell id="_22NV1dZ3HJoFYhtjVRD-16" value="Data Node 2" style="shape=image;verticalLabelPosition=bottom;labelBackgroundColor=default;verticalAlign=top;aspect=fixed;imageAspect=0;image=https://miro.medium.com/v2/resize:fit:640/1*IwREy4zpiSstXRZuGZPl3Q.png;fontStyle=1;fontSize=14;" parent="_22NV1dZ3HJoFYhtjVRD-19" vertex="1">
          <mxGeometry x="25.19" y="11" width="264.9" height="125" as="geometry" />
        </mxCell>
        <mxCell id="_22NV1dZ3HJoFYhtjVRD-21" value="" style="group" parent="_22NV1dZ3HJoFYhtjVRD-33" vertex="1" connectable="0">
          <mxGeometry x="413.8095238095238" y="27.027027027027028" width="313.4920634920635" height="157" as="geometry" />
        </mxCell>
        <mxCell id="_22NV1dZ3HJoFYhtjVRD-20" value="" style="rounded=1;whiteSpace=wrap;html=1;fillColor=none;sketch=1;curveFitting=1;jiggle=2;" parent="_22NV1dZ3HJoFYhtjVRD-21" vertex="1">
          <mxGeometry width="290" height="157" as="geometry" />
        </mxCell>
        <mxCell id="_22NV1dZ3HJoFYhtjVRD-10" value="Data Node 1" style="shape=image;verticalLabelPosition=bottom;labelBackgroundColor=default;verticalAlign=top;aspect=fixed;imageAspect=0;image=https://miro.medium.com/v2/resize:fit:640/1*IwREy4zpiSstXRZuGZPl3Q.png;fontStyle=1;fontSize=14;" parent="_22NV1dZ3HJoFYhtjVRD-21" vertex="1">
          <mxGeometry x="20.189999999999998" y="17.9" width="256.86" height="121.2" as="geometry" />
        </mxCell>
        <mxCell id="_22NV1dZ3HJoFYhtjVRD-23" value="" style="group" parent="_22NV1dZ3HJoFYhtjVRD-33" vertex="1" connectable="0">
          <mxGeometry x="62.698412698412696" y="113.51351351351352" width="285.86999999999995" height="186" as="geometry" />
        </mxCell>
        <mxCell id="_22NV1dZ3HJoFYhtjVRD-22" value="" style="rounded=1;whiteSpace=wrap;html=1;fillColor=none;sketch=1;curveFitting=1;jiggle=2;" parent="_22NV1dZ3HJoFYhtjVRD-23" vertex="1">
          <mxGeometry width="269.86650793650796" height="140.54054054054052" as="geometry" />
        </mxCell>
        <mxCell id="_22NV1dZ3HJoFYhtjVRD-15" value="" style="shape=image;verticalLabelPosition=bottom;labelBackgroundColor=default;verticalAlign=top;aspect=fixed;imageAspect=0;image=https://www.xillio.com/hubfs/Connectors/hadoop-logo.png;fontStyle=1;fontSize=14;" parent="_22NV1dZ3HJoFYhtjVRD-23" vertex="1">
          <mxGeometry x="4.299999999999999" y="-31.48" width="271.34" height="203.51" as="geometry" />
        </mxCell>
        <mxCell id="friyxeqYt2H_IM2uGogb-2" value="&lt;font style=&quot;font-size: 15px;&quot;&gt;&lt;b&gt;Name Node&lt;/b&gt;&amp;nbsp;&lt;/font&gt;" style="text;html=1;align=center;verticalAlign=middle;whiteSpace=wrap;rounded=0;fillColor=default;" parent="_22NV1dZ3HJoFYhtjVRD-23" vertex="1">
          <mxGeometry x="94.97158730158753" y="124.48648648648646" width="90" height="30" as="geometry" />
        </mxCell>
        <mxCell id="_22NV1dZ3HJoFYhtjVRD-28" style="edgeStyle=orthogonalEdgeStyle;rounded=0;orthogonalLoop=1;jettySize=auto;html=1;flowAnimation=1;strokeWidth=2;" parent="_22NV1dZ3HJoFYhtjVRD-33" source="_22NV1dZ3HJoFYhtjVRD-22" target="_22NV1dZ3HJoFYhtjVRD-18" edge="1">
          <mxGeometry relative="1" as="geometry" />
        </mxCell>
        <mxCell id="_22NV1dZ3HJoFYhtjVRD-30" style="edgeStyle=orthogonalEdgeStyle;rounded=0;orthogonalLoop=1;jettySize=auto;html=1;entryX=0;entryY=0.5;entryDx=0;entryDy=0;flowAnimation=1;strokeWidth=2;" parent="_22NV1dZ3HJoFYhtjVRD-33" source="_22NV1dZ3HJoFYhtjVRD-22" target="_22NV1dZ3HJoFYhtjVRD-20" edge="1">
          <mxGeometry relative="1" as="geometry" />
        </mxCell>
        <mxCell id="P1ue3Hpq2hntPY72s0VW-104" value="" style="group" parent="friyxeqYt2H_IM2uGogb-6" vertex="1" connectable="0">
          <mxGeometry x="730.6031746031749" y="507.0270270270271" width="313.4920634920635" height="172.97297297297297" as="geometry" />
        </mxCell>
        <mxCell id="kcarH5I2NXuh7Zedb2XX-21" value="" style="rounded=1;whiteSpace=wrap;html=1;fillColor=none;sketch=1;curveFitting=1;jiggle=2;shadow=1;glass=1;" parent="P1ue3Hpq2hntPY72s0VW-104" vertex="1">
          <mxGeometry width="313.4920634920635" height="172.97297297297297" as="geometry" />
        </mxCell>
        <mxCell id="kcarH5I2NXuh7Zedb2XX-9" value="" style="shape=image;verticalLabelPosition=bottom;labelBackgroundColor=default;verticalAlign=top;aspect=fixed;imageAspect=0;image=https://upload.wikimedia.org/wikipedia/commons/thumb/f/f3/Apache_Spark_logo.svg/512px-Apache_Spark_logo.svg.png;fontSize=13;fontStyle=1" parent="P1ue3Hpq2hntPY72s0VW-104" vertex="1">
          <mxGeometry x="32.57" y="21.98" width="248.36" height="129.02" as="geometry" />
        </mxCell>
        <mxCell id="kere6LFMNqeJJOD1_rnF-26" style="edgeStyle=orthogonalEdgeStyle;rounded=0;orthogonalLoop=1;jettySize=auto;html=1;entryX=0.515;entryY=1.002;entryDx=0;entryDy=0;entryPerimeter=0;flowAnimation=1;strokeWidth=3;" parent="friyxeqYt2H_IM2uGogb-6" source="kcarH5I2NXuh7Zedb2XX-21" target="_22NV1dZ3HJoFYhtjVRD-26" edge="1">
          <mxGeometry relative="1" as="geometry" />
        </mxCell>
        <mxCell id="kere6LFMNqeJJOD1_rnF-41" style="edgeStyle=orthogonalEdgeStyle;rounded=0;orthogonalLoop=1;jettySize=auto;html=1;entryX=0.395;entryY=-0.016;entryDx=0;entryDy=0;entryPerimeter=0;flowAnimation=1;strokeWidth=3;" parent="friyxeqYt2H_IM2uGogb-6" source="_22NV1dZ3HJoFYhtjVRD-26" target="kcarH5I2NXuh7Zedb2XX-21" edge="1">
          <mxGeometry relative="1" as="geometry">
            <Array as="points">
              <mxPoint x="854" y="421" />
              <mxPoint x="854" y="421" />
            </Array>
          </mxGeometry>
        </mxCell>
        <mxCell id="kcarH5I2NXuh7Zedb2XX-88" value="" style="group" parent="friyxeqYt2H_IM2uGogb-14" vertex="1" connectable="0">
          <mxGeometry x="2731.9955555555553" y="663.5011267605634" width="404.4444444444444" height="204.4788732394366" as="geometry" />
        </mxCell>
        <mxCell id="kcarH5I2NXuh7Zedb2XX-78" value="" style="shape=image;verticalLabelPosition=bottom;labelBackgroundColor=default;verticalAlign=top;aspect=fixed;imageAspect=0;image=https://upload.wikimedia.org/wikipedia/commons/thumb/f/ff/Snowflake_Logo.svg/2560px-Snowflake_Logo.svg.png;" parent="kcarH5I2NXuh7Zedb2XX-88" vertex="1">
          <mxGeometry x="33.106666666666506" y="66.15492957746478" width="338.21955555555553" height="80.88888888888889" as="geometry" />
        </mxCell>
        <mxCell id="kcarH5I2NXuh7Zedb2XX-87" value="" style="rounded=1;whiteSpace=wrap;html=1;fillColor=none;sketch=1;curveFitting=1;jiggle=2;" parent="kcarH5I2NXuh7Zedb2XX-88" vertex="1">
          <mxGeometry width="404.4444444444444" height="204.4788732394366" as="geometry" />
        </mxCell>
        <mxCell id="_22NV1dZ3HJoFYhtjVRD-37" style="edgeStyle=orthogonalEdgeStyle;rounded=0;orthogonalLoop=1;jettySize=auto;html=1;entryX=0;entryY=0.5;entryDx=0;entryDy=0;flowAnimation=1;strokeWidth=3;" parent="friyxeqYt2H_IM2uGogb-14" source="kcarH5I2NXuh7Zedb2XX-81" target="kcarH5I2NXuh7Zedb2XX-87" edge="1">
          <mxGeometry relative="1" as="geometry" />
        </mxCell>
        <mxCell id="_22NV1dZ3HJoFYhtjVRD-42" style="edgeStyle=orthogonalEdgeStyle;rounded=0;orthogonalLoop=1;jettySize=auto;html=1;exitX=0.75;exitY=1;exitDx=0;exitDy=0;entryX=0.5;entryY=0;entryDx=0;entryDy=0;flowAnimation=1;" parent="friyxeqYt2H_IM2uGogb-14" source="kcarH5I2NXuh7Zedb2XX-90" target="kcarH5I2NXuh7Zedb2XX-87" edge="1">
          <mxGeometry relative="1" as="geometry" />
        </mxCell>
        <mxCell id="friyxeqYt2H_IM2uGogb-8" value="" style="group" parent="friyxeqYt2H_IM2uGogb-14" vertex="1" connectable="0">
          <mxGeometry x="1153" y="374.98" width="1104.17" height="356" as="geometry" />
        </mxCell>
        <mxCell id="P1ue3Hpq2hntPY72s0VW-76" value="" style="shape=image;verticalLabelPosition=bottom;labelBackgroundColor=default;verticalAlign=top;aspect=fixed;imageAspect=0;image=https://code.vt.edu/uploads/-/system/project/avatar/4084/jupyter.png;" parent="friyxeqYt2H_IM2uGogb-8" vertex="1">
          <mxGeometry x="446" width="200" height="200" as="geometry" />
        </mxCell>
        <mxCell id="kere6LFMNqeJJOD1_rnF-18" value="" style="group" parent="friyxeqYt2H_IM2uGogb-8" vertex="1" connectable="0">
          <mxGeometry y="126" width="1104.17" height="230" as="geometry" />
        </mxCell>
        <mxCell id="kere6LFMNqeJJOD1_rnF-7" value="" style="group" parent="kere6LFMNqeJJOD1_rnF-18" vertex="1" connectable="0">
          <mxGeometry x="613" width="491.17000000000013" height="230" as="geometry" />
        </mxCell>
        <mxCell id="kere6LFMNqeJJOD1_rnF-17" value="" style="group" parent="kere6LFMNqeJJOD1_rnF-7" vertex="1" connectable="0">
          <mxGeometry width="471" height="230" as="geometry" />
        </mxCell>
        <mxCell id="kere6LFMNqeJJOD1_rnF-8" value="" style="rounded=1;whiteSpace=wrap;html=1;fillColor=none;sketch=1;curveFitting=1;jiggle=2;" parent="kere6LFMNqeJJOD1_rnF-17" vertex="1">
          <mxGeometry width="471" height="230" as="geometry" />
        </mxCell>
        <mxCell id="kere6LFMNqeJJOD1_rnF-13" value="" style="group" parent="kere6LFMNqeJJOD1_rnF-18" vertex="1" connectable="0">
          <mxGeometry width="491.17000000000013" height="230" as="geometry" />
        </mxCell>
        <mxCell id="kere6LFMNqeJJOD1_rnF-14" value="" style="rounded=1;whiteSpace=wrap;html=1;fillColor=none;sketch=1;curveFitting=1;jiggle=2;" parent="kere6LFMNqeJJOD1_rnF-13" vertex="1">
          <mxGeometry width="471" height="230" as="geometry" />
        </mxCell>
        <mxCell id="kere6LFMNqeJJOD1_rnF-4" value="" style="shape=image;verticalLabelPosition=bottom;labelBackgroundColor=default;verticalAlign=top;aspect=fixed;imageAspect=0;image=https://www.alura.com.br/artigos/assets/spark-streaming/spark-streaming.jpg;clipPath=inset(0% 28% 0% 25%);" parent="kere6LFMNqeJJOD1_rnF-13" vertex="1">
          <mxGeometry x="66.47772310316623" y="28" width="338.04" height="187" as="geometry" />
        </mxCell>
        <mxCell id="kere6LFMNqeJJOD1_rnF-16" style="edgeStyle=orthogonalEdgeStyle;rounded=0;orthogonalLoop=1;jettySize=auto;html=1;entryX=0;entryY=0.5;entryDx=0;entryDy=0;flowAnimation=1;strokeWidth=3;" parent="kere6LFMNqeJJOD1_rnF-18" source="kere6LFMNqeJJOD1_rnF-14" target="kere6LFMNqeJJOD1_rnF-8" edge="1">
          <mxGeometry relative="1" as="geometry" />
        </mxCell>
        <mxCell id="friyxeqYt2H_IM2uGogb-12" style="edgeStyle=orthogonalEdgeStyle;rounded=0;orthogonalLoop=1;jettySize=auto;html=1;entryX=0;entryY=0.5;entryDx=0;entryDy=0;strokeWidth=4;flowAnimation=1;" parent="friyxeqYt2H_IM2uGogb-14" source="kcarH5I2NXuh7Zedb2XX-87" target="kcarH5I2NXuh7Zedb2XX-93" edge="1">
          <mxGeometry relative="1" as="geometry" />
        </mxCell>
        <mxCell id="friyxeqYt2H_IM2uGogb-13" style="edgeStyle=orthogonalEdgeStyle;rounded=0;orthogonalLoop=1;jettySize=auto;html=1;entryX=0;entryY=0.5;entryDx=0;entryDy=0;strokeWidth=4;flowAnimation=1;" parent="friyxeqYt2H_IM2uGogb-14" target="kcarH5I2NXuh7Zedb2XX-95" edge="1">
          <mxGeometry relative="1" as="geometry">
            <mxPoint x="2492" y="864.98" as="sourcePoint" />
            <Array as="points">
              <mxPoint x="2492" y="1014.98" />
              <mxPoint x="2912" y="1014.98" />
              <mxPoint x="2912" y="1142.98" />
            </Array>
          </mxGeometry>
        </mxCell>
        <mxCell id="_bfDtZCsg3ACTZ2D3vB6-89" value="" style="shape=image;verticalLabelPosition=bottom;labelBackgroundColor=default;verticalAlign=top;aspect=fixed;imageAspect=0;image=https://gbhat.com/assets/images/spark_ml.png;" parent="1" vertex="1">
          <mxGeometry x="5302.02" y="-1241.52" width="426.96" height="167" as="geometry" />
        </mxCell>
        <mxCell id="WNfc-2BglTf0FpZ_Z0In-20" value="" style="group" vertex="1" connectable="0" parent="1">
          <mxGeometry x="1004" y="-343" width="561" height="260" as="geometry" />
        </mxCell>
        <mxCell id="WNfc-2BglTf0FpZ_Z0In-13" value="" style="shape=image;verticalLabelPosition=bottom;labelBackgroundColor=default;verticalAlign=top;aspect=fixed;imageAspect=0;image=https://miro.medium.com/v2/resize:fit:640/1*IwREy4zpiSstXRZuGZPl3Q.png;" vertex="1" parent="WNfc-2BglTf0FpZ_Z0In-20">
          <mxGeometry x="58" y="14" width="464.12" height="219" as="geometry" />
        </mxCell>
        <mxCell id="WNfc-2BglTf0FpZ_Z0In-19" value="" style="rounded=1;whiteSpace=wrap;html=1;fillColor=none;" vertex="1" parent="WNfc-2BglTf0FpZ_Z0In-20">
          <mxGeometry width="561" height="260" as="geometry" />
        </mxCell>
        <mxCell id="WNfc-2BglTf0FpZ_Z0In-22" value="" style="group" vertex="1" connectable="0" parent="1">
          <mxGeometry x="2104" y="-663" width="561" height="260" as="geometry" />
        </mxCell>
        <mxCell id="WNfc-2BglTf0FpZ_Z0In-14" value="" style="shape=image;verticalLabelPosition=bottom;labelBackgroundColor=default;verticalAlign=top;aspect=fixed;imageAspect=0;image=https://static-00.iconduck.com/assets.00/kafka-icon-2048x935-cvu4503l.png;" vertex="1" parent="WNfc-2BglTf0FpZ_Z0In-22">
          <mxGeometry x="64" y="22" width="462.06" height="211" as="geometry" />
        </mxCell>
        <mxCell id="WNfc-2BglTf0FpZ_Z0In-16" value="" style="rounded=1;whiteSpace=wrap;html=1;fillColor=none;" vertex="1" parent="WNfc-2BglTf0FpZ_Z0In-22">
          <mxGeometry width="561" height="260" as="geometry" />
        </mxCell>
        <mxCell id="WNfc-2BglTf0FpZ_Z0In-23" value="" style="group" vertex="1" connectable="0" parent="1">
          <mxGeometry x="2104" y="18" width="561" height="260" as="geometry" />
        </mxCell>
        <mxCell id="WNfc-2BglTf0FpZ_Z0In-11" value="" style="shape=image;verticalLabelPosition=bottom;labelBackgroundColor=default;verticalAlign=top;aspect=fixed;imageAspect=0;image=https://gbhat.com/assets/images/spark_ml.png;" vertex="1" parent="WNfc-2BglTf0FpZ_Z0In-23">
          <mxGeometry x="97.55000000000018" y="41" width="426.96" height="167" as="geometry" />
        </mxCell>
        <mxCell id="WNfc-2BglTf0FpZ_Z0In-18" value="" style="rounded=1;whiteSpace=wrap;html=1;fillColor=none;" vertex="1" parent="WNfc-2BglTf0FpZ_Z0In-23">
          <mxGeometry width="561" height="260" as="geometry" />
        </mxCell>
        <mxCell id="WNfc-2BglTf0FpZ_Z0In-24" value="" style="group" vertex="1" connectable="0" parent="1">
          <mxGeometry x="2104" y="-337" width="561" height="260" as="geometry" />
        </mxCell>
        <mxCell id="WNfc-2BglTf0FpZ_Z0In-17" value="" style="rounded=1;whiteSpace=wrap;html=1;fillColor=none;" vertex="1" parent="WNfc-2BglTf0FpZ_Z0In-24">
          <mxGeometry width="561" height="260" as="geometry" />
        </mxCell>
        <mxCell id="WNfc-2BglTf0FpZ_Z0In-12" value="" style="shape=image;verticalLabelPosition=bottom;labelBackgroundColor=default;verticalAlign=top;aspect=fixed;imageAspect=0;image=https://www.alura.com.br/artigos/assets/spark-streaming/spark-streaming.jpg;clipPath=inset(0% 28% 0% 25%);" vertex="1" parent="WNfc-2BglTf0FpZ_Z0In-24">
          <mxGeometry x="53.63000000000011" y="4.5" width="453.73" height="251" as="geometry" />
        </mxCell>
        <mxCell id="WNfc-2BglTf0FpZ_Z0In-25" style="edgeStyle=orthogonalEdgeStyle;rounded=0;orthogonalLoop=1;jettySize=auto;html=1;entryX=0.5;entryY=0;entryDx=0;entryDy=0;" edge="1" parent="1" source="WNfc-2BglTf0FpZ_Z0In-16" target="WNfc-2BglTf0FpZ_Z0In-17">
          <mxGeometry relative="1" as="geometry" />
        </mxCell>
        <mxCell id="WNfc-2BglTf0FpZ_Z0In-26" style="edgeStyle=orthogonalEdgeStyle;rounded=0;orthogonalLoop=1;jettySize=auto;html=1;entryX=0.5;entryY=0;entryDx=0;entryDy=0;" edge="1" parent="1" source="WNfc-2BglTf0FpZ_Z0In-12" target="WNfc-2BglTf0FpZ_Z0In-18">
          <mxGeometry relative="1" as="geometry" />
        </mxCell>
      </root>
    </mxGraphModel>
  </diagram>
</mxfile>
